#!OML:ASF I:\Actors\actors\Patient Classification 2\Patient 1\Session 1\actor1.ASF
:FULLY-SPECIFIED
:DEGREES
691
root -0.366809 18.7444 5.6281 13.2718 4.79236 -1.00169
lowerback 21.4799 0.256753 1.7314
upperback -1.01698 0.783923 -0.0183067
thorax -13.2491 0.236773 -1.26536
lowerneck -11.2025 -6.07816 -6.0441
upperneck 9.98117 -8.57191 10.6531
head 5.5825 -3.72105 3.60114
rclavicle -2.83268e-015 4.67144e-015
rhumerus -29.609 10.1701 -90.8991
rradius 129.227
rwrist 17.9961
rhand 1.50167 -37.0089
rfingers 7.12502
rthumb 27.0279 294.905
lclavicle -2.83268e-015 4.67144e-015
lhumerus -32.4248 -21.0664 97.8871
lradius 118.219
lwrist -2.78408
lhand 1.4192 -6.23833
lfingers 7.12502
lthumb 26.949 21.8599
rfemur -8.75256 -2.46804 14.4729
rtibia 6.49053
rfoot -19.8595 -15.1238
rtoes -8.09995
lfemur -25.3345 -2.64938 -12.9483
ltibia 30.1334
lfoot -17.9685 5.08938
ltoes -55.821
692
root -0.370933 18.7443 5.62041 13.3072 4.80664 -1.03126
lowerback 21.3703 0.256082 1.73701
upperback -1.01694 0.78007 -0.0347111
thorax -13.1857 0.234752 -1.28438
lowerneck -11.5061 -6.13129 -6.10415
upperneck 11.3688 -8.75072 10.6752
head 6.08671 -3.76312 3.58993
rclavicle -1.46976e-014 6.55989e-015
rhumerus -29.7441 9.86248 -90.8874
rradius 128.786
rwrist 18.2511
rhand 2.2368 -37.3841
rfingers 7.12502
rthumb 27.731 294.641
lclavicle -1.46976e-014 6.55989e-015
lhumerus -32.5035 -21.2744 97.9139
lradius 118.189
lwrist -2.58106
lhand 1.26661 -6.06151
lfingers 7.12502
lthumb 26.803 22.0592
rfemur -8.82273 -2.47606 14.5236
rtibia 6.50469
rfoot -19.8889 -15.0897
rtoes -7.74092
lfemur -25.4091 -2.595 -12.9068
ltibia 30.1402
lfoot -17.911 5.0182
ltoes -55.8234
693
root -0.377282 18.7436 5.61156 13.3528 4.84071 -1.07401
lowerback 21.2431 0.257705 1.69068
upperback -1.00382 0.76886 -0.0261348
thorax -13.0983 0.234533 -1.24286
lowerneck -11.9136 -6.17105 -6.05152
upperneck 12.8039 -8.91554 10.5804
head 6.6177 -3.79624 3.52327
rclavicle 6.70898e-015 -4.02539e-015
rhumerus -30.4651 9.54978 -90.9695
rradius 128.372
rwrist 18.5237
rhand 2.66132 -37.173
rfingers 7.12502
rthumb 28.1369 294.918
lclavicle 6.70898e-015 -4.02539e-015
lhumerus -32.5715 -21.5602 97.9943
lradius 118.125
lwrist -2.07026
lhand 0.726999 -5.86063
lfingers 7.12502
lthumb 26.2865 22.3382
rfemur -8.92367 -2.49891 14.6063
rtibia 6.54602
rfoot -19.9021 -15.1002
rtoes -7.76215
lfemur -25.5095 -2.55912 -12.8357
ltibia 30.1463
lfoot -17.8698 4.98403
ltoes -55.8333
694
root -0.383207 18.7434 5.60305 13.3299 4.81604 -1.09257
lowerback 21.1857 0.282313 1.60033
upperback -0.96098 0.776881 -0.0261511
thorax -13.0164 0.245774 -1.19266
lowerneck -12.391 -6.22152 -6.02908
upperneck 14.2353 -9.0833 10.4583
head 7.1669 -3.83149 3.45165
rclavicle -1.00138e-014 -7.45443e-015
rhumerus -30.5065 9.70591 -90.7238
rradius 127.72
rwrist 18.2644
rhand 2.24684 -37.4816
rfingers 7.12502
rthumb 27.7406 294.545
lclavicle -1.00138e-014 -7.45443e-015
lhumerus -32.5369 -21.7626 97.9892
lradius 118.002
lwrist -1.78086
lhand 0.471911 -5.84563
lfingers 7.12502
lthumb 26.0423 22.3894
rfemur -8.9443 -2.46517 14.6399
rtibia 6.56976
rfoot -19.8919 -15.1214
rtoes -7.90941
lfemur -25.5145 -2.53004 -12.8013
ltibia 30.1514
lfoot -17.8741 4.99207
ltoes -55.8498
695
root -0.386155 18.7437 5.59651 13.2624 4.74958 -1.14313
lowerback 21.1547 0.301401 1.56262
upperback -0.90957 0.79202 -0.0214103
thorax -12.939 0.256764 -1.16974
lowerneck -12.8632 -6.23878 -6.10809
upperneck 15.6328 -9.19547 10.4046
head 7.71545 -3.84104 3.42689
rclavicle -2.32951e-015 -7.237e-015
rhumerus -30.7242 9.73364 -90.6788
rradius 127.237
rwrist 18.0608
rhand 1.8398 -37.6108
rfingers 7.12502
rthumb 27.3514 294.354
lclavicle -2.32951e-015 -7.237e-015
lhumerus -32.4413 -21.8477 97.9186
lradius 117.883
lwrist -1.73083
lhand 0.619074 -5.84526
lfingers 7.12502
lthumb 26.1832 22.369
rfemur -8.91984 -2.38215 14.6795
rtibia 6.59094
rfoot -19.8878 -15.1224
rtoes -8.00376
lfemur -25.45 -2.47017 -12.7539
ltibia 30.1484
lfoot -17.8781 4.99502
ltoes -55.8835
696
root -0.386822 18.7433 5.59151 13.1802 4.69547 -1.19803
lowerback 21.1877 0.315469 1.62179
upperback -0.915482 0.823902 -0.039084
thorax -12.9628 0.266205 -1.23405
lowerneck -13.1667 -6.24481 -6.32443
upperneck 16.9589 -9.30038 10.5337
head 8.23436 -3.8468 3.49304
rclavicle 4.22223e-015 -5.28954e-015
rhumerus -31.1744 9.61631 -90.7713
rradius 126.917
rwrist 18.0227
rhand 2.0597 -37.8874
rfingers 7.12502
rthumb 27.5617 294.11
lclavicle 4.22223e-015 -5.28954e-015
lhumerus -32.504 -21.9727 97.9534
lradius 117.792
lwrist -1.72545
lhand 0.810483 -5.73726
lfingers 7.12502
lthumb 26.3664 22.4496
rfemur -8.8693 -2.31021 14.7177
rtibia 6.59027
rfoot -19.8743 -15.1308
rtoes -7.9813
lfemur -25.3596 -2.46148 -12.6996
ltibia 30.1371
lfoot -17.8715 5.03598
ltoes -55.9203
697
root -0.387406 18.7426 5.58644 13.0824 4.65494 -1.20505
lowerback 21.2316 0.344696 1.66269
upperback -0.93273 0.869689 -0.071355
thorax -13.0054 0.282279 -1.30907
lowerneck -13.3018 -6.2458 -6.43735
upperneck 18.122 -9.39876 10.5943
head 8.66677 -3.85908 3.52599
rclavicle -7.88655e-015 -1.48157e-015
rhumerus -31.6311 9.46686 -90.8603
rradius 126.606
rwrist 18.0592
rhand 2.41473 -38.3016
rfingers 7.12502
rthumb 27.9012 293.751
lclavicle -7.88655e-015 -1.48157e-015
lhumerus -32.6074 -22.1305 98.0425
lradius 117.694
lwrist -1.74853
lhand 0.983987 -5.59837
lfingers 7.12502
lthumb 26.5325 22.5635
rfemur -8.7777 -2.26074 14.7095
rtibia 6.55875
rfoot -19.8392 -15.1435
rtoes -7.95493
lfemur -25.2479 -2.47025 -12.698
ltibia 30.1201
lfoot -17.8734 5.07164
ltoes -55.9083
